<?xml version="1.0" encoding="utf-8"?>
<!-- Generator: Adobe Illustrator 22.0.0, SVG Export Plug-In . SVG Version: 6.00 Build 0)  -->
<svg version="1.1" id="Capa_1" xmlns="http://www.w3.org/2000/svg" xmlns:xlink="http://www.w3.org/1999/xlink" x="0px" y="0px"
	 viewBox="0 0 792 612" style="enable-background:new 0 0 792 612;" xml:space="preserve">
<style type="text/css">
	.st0{fill:#B9E6FF;}
	.st1{fill:#32B4FF;}
	.st2{fill:#E6F6FF;}
	.st3{fill:#FFFFFF;}
</style>
<g>
	<path d="M629.2,400H167.9V151.3h421.7c21.6,0,39.6,17.5,39.6,39.6L629.2,400L629.2,400z"/>
	<g>
		<g>
			<path class="st0" d="M300.7,238.3c0,10.4-8.1,18.5-18.4,18.5h3.6c13.9,0,26.1,5.8,35.1,14.8c8.6-9,13.9-21.2,13.9-34.2
				c0-27-22.1-49.1-49.1-49.1h-60.3v31.5h56.7C292.7,219.9,300.7,227.9,300.7,238.3z"/>
			<path class="st0" d="M286,286.4h-3.6c10.3,0,18.4,8.1,18.4,18.4s-8.1,18.4-18.4,18.4h-56.7v31.5H286c27,0,49.1-22.1,49.1-49.1
				c0-13.5-5.4-25.2-13.9-34.2C311.9,280.7,299.5,286.4,286,286.4z"/>
			<path class="st1" d="M286,286.4c13.9,0,26.1-5.9,35.1-14.9c-9-9-21.6-14.8-35.1-14.8h-3.6h-56.7v29.7h56.7L286,286.4L286,286.4z"
				/>
			<rect x="194.2" y="323.5" class="st1" width="31.5" height="31.5"/>
			<rect x="225.7" y="323.5" class="st2" width="31.5" height="31.5"/>
			<rect x="194.2" y="286.4" class="st2" width="31.5" height="36.9"/>
		</g>
		<g>
			<g>
				<path class="st3" d="M354.4,188.4h28.8c7.6,0,13.5,1.3,17.1,4.5s5.9,8.1,5.9,14.8c0,4.1-0.4,7.2-1.8,9.9
					c-1.4,2.3-3.2,4.5-6.3,6.3c3.1,1.3,5.8,3.2,7.2,5.8c1.3,2.7,2.3,6.3,2.3,10.8c0,7.2-2.3,12.6-6.3,15.8
					c-4.1,3.6-9.9,5.4-17.6,5.4h-29.3L354.4,188.4L354.4,188.4z M382.3,201.4h-13.1V219h13.5c5.4,0,8.6-2.7,8.6-8.6
					C390.7,204.2,388.1,201.4,382.3,201.4z M382.7,231.2h-13.5v18h13.5c3.2,0,5.9-0.4,7.2-1.8c1.4-1.3,2.3-3.6,2.3-7.2
					C392.2,234.2,389,231.2,382.7,231.2z"/>
				<path class="st3" d="M413.2,261.6v-54h14.4v5.8c5.8-3.6,11.7-5.8,17.1-7.2v14.4c-5.8,1.3-10.8,2.7-14.8,3.6l-2.3,1.3v36h-14.4
					V261.6z"/>
				<path class="st3" d="M479.9,207.7h14.4v54h-14.4v-3.2c-5.4,2.7-9.9,4.5-13.5,4.5c-7.6,0-12.6-2.3-15.3-6.3
					c-2.7-4.1-4.1-11.3-4.1-20.7v-28.3h14.4V236c0,5.4,0.4,9,1.3,10.8s3.2,2.7,6.3,2.7c3.2,0,6.3-0.4,9-1.3l1.4-0.4v-40L479.9,207.7
					L479.9,207.7z"/>
				<path class="st3" d="M516.7,261.6h-14.4v-54h14.4v3.2c4.9-2.7,9.4-4.5,13.5-4.5c7.2,0,12.1,2.3,14.8,6.3s4,10.8,4,19.8v29.3
					h-14.4v-28.8c0-4.5-0.5-8.1-1.8-10.3c-0.9-2.3-3.2-3.2-6.3-3.2c-3.2,0-5.9,0.4-8.6,1.3l-1.3,0.4L516.7,261.6L516.7,261.6z"/>
				<path class="st3" d="M559.4,213.9c3.6-4.9,10.4-7.2,18.9-7.2s15.3,2.3,18.9,7.2c3.6,5,5.9,11.7,5.9,20.7
					c0,18.9-8.1,28.4-24.8,28.4s-24.8-9.4-24.8-28.4C554.2,225.7,556,218.9,559.4,213.9z M570.7,246.9c1.4,2.7,4,4.1,8.1,4.1
					c4,0,6.3-1.3,8.1-4.1c1.4-2.7,2.3-6.8,2.3-12.2s-0.9-9.4-2.3-12.2c-1.4-2.7-4.1-3.6-8.1-3.6c-4.1,0-6.3,1.3-8.1,3.6
					c-1.4,2.7-2.3,6.8-2.3,12.2S569.5,244.7,570.7,246.9z"/>
			</g>
		</g>
		<g>
			<g>
				<path class="st3" d="M396.2,355h-41.8v-73.4h14.8v60.3h27V355z"/>
				<path class="st3" d="M404.2,307.1c3.6-4.9,10.4-7.2,18.9-7.2s15.3,2.3,18.9,7.2c3.6,4.9,5.9,11.7,5.9,20.7
					c0,18.9-8.1,28.4-24.8,28.4c-16.7,0-24.8-9.4-24.8-28.4C398.5,319,400.3,312.2,404.2,307.1z M415.4,340c1.4,2.7,4.1,4.1,8.1,4.1
					c4.1,0,6.3-1.4,8.1-4.1c1.4-2.7,2.3-6.8,2.3-12.2c0-5.4-0.9-9.4-2.3-12.1c-1.3-2.7-4.1-3.6-8.1-3.6c-4.1,0-6.3,1.4-8.1,3.6
					c-1.3,2.7-2.3,6.8-2.3,12.1C413.2,333.2,413.8,337.3,415.4,340z"/>
				<path class="st3" d="M470.5,341.5c1.8,1.3,4.1,2.3,7.2,2.3c6.8,0,12.6,0,18-0.4l3.2-0.4v10.8c-8.1,1.8-15.8,3.1-22.5,3.1
					c-8.1,0-13.9-2.3-17.6-6.3c-3.6-4.5-5.4-11.3-5.4-21.1c0-19.4,8.1-29.3,23.9-29.3s23.4,8.1,23.4,24.3l-0.9,9.9h-31.9
					C467.8,337.3,468.7,340,470.5,341.5z M486.7,322.9c0-4.5-0.9-7.2-2.3-9c-1.3-1.8-3.6-2.7-7.2-2.7s-5.8,0.9-7.2,2.7
					c-1.3,1.8-2.3,4.9-2.3,9H486.7z"/>
				<path class="st3" d="M508.3,355v-54h14.4v5.8c5.9-3.6,11.7-5.8,17.1-7.2V314c-5.9,1.3-10.8,2.7-14.9,3.6l-2.3,0.9v36h-14.4v0.5
					H508.3z"/>
				<path class="st3" d="M587,317.9v22.5c0,1.8,0.4,3.1,0.9,3.6c0.4,0.9,1.4,1.4,2.7,1.4l-0.4,10.8c-3.6,0-6.8-0.4-9-0.9
					c-2.3-0.4-4.5-1.3-6.8-3.1c-5.4,2.7-10.4,3.6-15.8,3.6c-11.3,0-16.7-5.8-16.7-17.6c0-5.8,1.3-9.9,4.5-12.1s7.7-4.1,14.4-4.1
					l11.7-0.9V318c0-2.3-0.4-3.6-1.4-4.5c-0.9-0.9-2.7-1.4-4.9-1.4l-20.3,0.9l-0.5-9.9c7.7-2.3,14.8-3.1,22.1-3.1
					c6.8,0,12.1,1.3,14.9,4.5C585.7,306.6,587,311.6,587,317.9z M562.7,331.9c-4,0.4-5.8,2.7-5.8,6.3s1.8,5.9,5.4,5.9
					c2.7,0,5.8-0.4,9-1.4l1.8-0.4v-11.7L562.7,331.9z"/>
			</g>
		</g>
	</g>
</g>
</svg>
