<?xml version="1.0" encoding="utf-8"?>
<!-- Generator: Adobe Illustrator 22.0.0, SVG Export Plug-In . SVG Version: 6.00 Build 0)  -->
<svg version="1.1" id="Capa_1" xmlns="http://www.w3.org/2000/svg" xmlns:xlink="http://www.w3.org/1999/xlink" x="0px" y="0px"
	 viewBox="0 0 792 612" style="enable-background:new 0 0 792 612;" xml:space="preserve">
<style type="text/css">
	.st0{fill:#DCDCDC;}
	.st1{fill:#AAAAAA;}
	.st2{fill:#EBEBEB;}
</style>
<g>
	<g>
		<path class="st0" d="M298.4,263.1c0,10.4-8.1,18.4-18.5,18.4h3.6c13.9,0,26.1,5.9,35.1,14.9c8.5-9,13.9-21.2,13.9-34.2
			c0-27-22-49.1-49-49.1h-60.3v31.5h56.7C290.3,244.7,298.4,252.8,298.4,263.1z"/>
		<path class="st0" d="M283.6,311.3H280c10.4,0,18.5,8.1,18.5,18.4s-8.1,18.4-18.5,18.4h-56.7v31.5h60.3c27,0,49.1-22.1,49.1-49.1
			c0-13.5-5.4-25.2-13.9-34.2C310.1,305.4,297.5,311.3,283.6,311.3z"/>
		<path class="st1" d="M283.6,311.3c13.9,0,26.1-5.9,35.1-14.9c-9-9-21.6-14.8-35.1-14.8H280h-56.7v29.7H280L283.6,311.3
			L283.6,311.3z"/>
		<rect x="191.8" y="348.1" class="st1" width="31.5" height="31.5"/>
		<rect x="223.3" y="348.1" class="st2" width="31.5" height="31.5"/>
		<rect x="191.8" y="311.3" class="st0" width="31.5" height="36.9"/>
	</g>
	<g>
		<g>
			<path class="st1" d="M351.9,213.1h28.8c7.7,0,13.5,1.3,17.1,4.5s5.9,8.1,5.9,14.8c0,4.1-0.4,7.2-1.8,9.9
				c-1.3,2.3-3.2,4.5-6.3,6.3c3.1,1.3,5.9,3.2,7.2,5.8c1.3,2.7,2.3,6.3,2.3,10.8c0,7.2-2.3,12.6-6.3,15.8c-4.1,3.6-9.9,5.4-17.6,5.4
				h-29.3L351.9,213.1L351.9,213.1z M380.3,226.2h-13.1v17.6h13.5c5.4,0,8.6-2.7,8.6-8.6C389.3,229.3,385.7,226.2,380.3,226.2z
				 M380.8,255.9h-13.5v18h13.5c3.2,0,5.8-0.4,7.2-1.8c1.4-1.3,2.3-3.6,2.3-7.2C390.2,259,387.1,255.9,380.8,255.9z"/>
			<path class="st1" d="M411.3,286.9v-54h14.4v5.8c5.8-3.6,11.7-5.8,17.1-7.2V246c-5.8,1.3-10.8,2.7-14.8,3.6l-2.3,0.9v36h-14.4
				L411.3,286.9L411.3,286.9z"/>
			<path class="st1" d="M477.9,232.9h14.4v54h-14.4v-3.2c-5.4,2.7-9.9,4.5-13.5,4.5c-7.6,0-12.6-2.3-15.3-6.3s-4.1-11.3-4.1-20.7
				v-28.3h14.4v28.3c0,5.4,0.5,9,1.4,10.8s3.1,2.7,6.3,2.7s6.3-0.4,9-1.3l1.3-0.4v-40.1H477.9L477.9,232.9z"/>
			<path class="st1" d="M514.8,286.9h-14.4v-54h14.4v3.2c5-2.7,9.5-4.5,13.5-4.5c7.2,0,12.2,2.3,14.8,6.3c2.7,4.1,4.1,10.8,4.1,19.8
				V287h-14.4v-28.8c0-4.5-0.4-8.1-1.8-10.3c-0.9-2.3-3.2-3.2-6.3-3.2s-5.8,0.4-8.5,1.3l-1.3,0.4L514.8,286.9L514.8,286.9z"/>
			<path class="st1" d="M557.6,238.8c3.6-5,10.3-7.2,18.9-7.2s15.3,2.3,18.9,7.2c3.6,4.9,5.9,11.7,5.9,20.7
				c0,18.9-8.1,28.4-24.8,28.4s-24.8-9.4-24.8-28.4C551.8,250.9,553.6,243.8,557.6,238.8z M568.8,271.6c1.3,2.7,4,4.1,8.1,4.1
				s6.3-1.3,8.1-4.1c1.3-2.7,2.3-6.8,2.3-12.1c0-5.4-0.9-9.4-2.3-12.2c-1.4-2.7-4.1-3.6-8.1-3.6s-6.3,1.3-8.1,3.6
				c-1.3,2.7-2.3,6.8-2.3,12.2C566.6,264.9,567.1,269.4,568.8,271.6z"/>
		</g>
	</g>
	<g>
		<g>
			<path class="st1" d="M393.8,379.6H352v-73.3h14.9v60.3h27v13H393.8z"/>
			<path class="st1" d="M401.9,331.9c3.6-4.9,10.3-7.2,18.9-7.2s15.3,2.3,18.9,7.2c3.6,4.9,5.9,11.7,5.9,20.7
				c0,18.9-8.1,28.3-24.8,28.3s-24.8-9.4-24.8-28.3C396.1,343.6,398.3,336.9,401.9,331.9z M413.2,364.8c1.3,2.7,4,4.1,8.1,4.1
				s6.3-1.3,8.1-4.1c1.4-2.7,2.3-6.8,2.3-12.1c0-5.4-0.9-9.4-2.3-12.2c-1.3-2.7-4-3.6-8.1-3.6s-6.3,1.3-8.1,3.6
				c-1.4,2.7-2.3,6.8-2.3,12.2C410.9,358,411.8,362.1,413.2,364.8z"/>
			<path class="st1" d="M468.5,366.1c1.8,1.4,4.1,2.3,7.2,2.3c6.8,0,12.6,0,18-0.4l3.1-0.4v10.8c-8.1,1.8-15.8,3.2-22.5,3.2
				c-8.1,0-13.9-2.3-17.5-6.3c-3.6-4.5-5.4-11.3-5.4-21.2c0-19.3,8.1-29.3,23.8-29.3s23.4,8.1,23.4,24.3l-0.9,9.9h-31.9
				C465.8,362.1,466.7,364.8,468.5,366.1z M484.3,348.1c0-4.5-0.9-7.2-2.3-9s-3.6-2.7-7.2-2.7s-5.9,0.9-7.2,2.7
				c-1.3,1.8-2.3,4.9-2.3,9H484.3z"/>
			<path class="st1" d="M506.3,379.6v-54h14.4v5.9c5.9-3.6,11.7-5.9,17.1-7.2v14.4c-5.9,1.4-10.8,2.7-14.9,3.6l-2.3,0.9v36h-14.4
				v0.4H506.3z"/>
			<path class="st1" d="M585.1,342.8v22.5c0,1.8,0.4,3.1,0.9,3.6c0.5,0.9,1.4,1.4,2.7,1.4l-0.5,10.8c-3.6,0-6.8-0.4-9-0.9
				c-2.3-0.4-4.5-1.3-6.8-3.1c-5.4,2.7-10.3,3.6-15.8,3.6c-11.3,0-16.6-5.8-16.6-17.6c0-5.8,1.3-9.9,4.5-12.1
				c3.1-2.3,7.6-4.1,14.4-4.1l11.7-0.9v-3.1c0-2.3-0.5-3.6-1.3-4.5c-0.9-0.9-2.7-1.4-5-1.4l-20.3,0.9l-0.4-9.9
				c7.7-2.3,14.8-3.1,22-3.1c6.8,0,12.2,1.3,14.9,4.5C583.7,331.5,585.1,336.4,585.1,342.8z M560.8,356.7c-4.1,0.4-5.8,2.7-5.8,6.3
				s1.8,5.8,5.4,5.8c2.7,0,5.8-0.4,9-1.3l1.8-0.4v-11.7L560.8,356.7z"/>
		</g>
	</g>
</g>
</svg>
